<svg xmlns="http://www.w3.org/2000/svg" width="35" height="32" viewBox="0 0 35 32" fill="none">
  <path d="M30.0304 13.2296C30.0152 12.8203 29.963 12.4079 29.8795 12.0064C29.6075 10.6923 28.8703 9.8042 27.5071 9.53637C26.7772 9.39279 26.0384 9.41942 25.3044 9.50034C24.0702 9.63609 22.8396 9.80263 21.6048 9.93472C20.616 10.0407 19.6324 10.0256 18.6613 9.74886C18.1074 9.59119 17.5383 9.48573 16.9729 9.37139C16.7463 9.32544 16.5113 9.3197 16.2565 9.29307C16.3599 9.17404 16.4596 9.09259 16.5155 8.98765C16.6429 8.74906 16.7551 8.50158 16.858 8.2515C16.8763 8.20712 16.8387 8.09957 16.7964 8.07712C16.1412 7.72315 15.4745 7.56809 14.79 8.00821C14.7179 8.05467 14.6428 8.09696 14.5817 8.13351C14.3436 7.93616 14.1238 7.73777 13.8873 7.56182C13.3182 7.13788 12.6839 7.08828 12.1012 7.45479C11.6966 7.70905 11.3588 7.71323 10.9683 7.52057C10.9302 7.50178 10.8863 7.49343 10.8451 7.48037C10.3319 7.31592 9.84997 7.3911 9.38635 7.6558C9.28298 7.71532 9.24539 7.77536 9.26523 7.89544C9.3425 8.36688 9.53828 8.77777 9.88808 9.1046C10.0223 9.2299 10.2494 9.29777 10.3146 9.44448C10.3856 9.60424 10.2974 9.82717 10.3146 10.0198C10.3961 10.9418 10.1919 11.7741 9.63383 12.5285C9.0992 13.251 9.14097 13.5857 9.76487 14.2294C9.81029 14.2759 9.85676 14.3219 9.90583 14.3641C10.287 14.692 10.7234 14.8351 11.2283 14.7761C11.7901 14.7108 12.213 14.3939 12.6223 14.042C12.6985 13.9768 12.804 13.9219 12.9021 13.9089C13.5166 13.8248 14.0773 13.6243 14.5551 13.2155C14.7326 13.0636 14.943 13.0741 15.0756 13.227C15.1393 13.3006 15.1147 14.0394 15.2954 15.0235C15.3387 15.0502 15.3836 15.0789 15.4332 15.1102C15.6436 15.2418 16.0383 15.2423 16.3678 15.4532C16.4179 15.4678 16.4711 15.4945 16.5312 15.5305C18.2734 14.314 26.5062 13.6129 28.0913 16.7501C28.1049 16.7438 28.344 17.0404 28.226 17.066C29.0587 19.2248 28.2182 20.8135 27.7963 22.8111C27.7796 22.9546 27.753 23.0982 27.7144 23.2413C27.6883 23.3932 27.6653 23.5477 27.6465 23.7054C27.6862 23.8918 27.8407 24.0166 28.0981 24.0552C28.367 24.0959 28.6447 24.0829 28.9188 24.0855C29.2613 24.0886 29.3689 23.9774 29.3694 23.6318C29.371 22.5913 29.3647 21.5507 29.3746 20.5107C29.3835 19.5621 29.4696 18.6228 29.7495 17.7081C29.8293 17.4471 29.891 17.1772 29.9317 16.9072C30.116 15.6866 30.0773 14.4576 30.0319 13.2307L30.0304 13.2296Z" fill="#A2D5AC"/>
  <path fill-rule="evenodd" clip-rule="evenodd" d="M2.92713 13.428C3.72959 11.6477 3.26284 9.68622 1.74251 8.56738C0.622625 10.4312 1.20423 12.7608 2.92713 13.428Z" fill="#FEC972"/>
  <path fill-rule="evenodd" clip-rule="evenodd" d="M2.85949 17.3913C3.20721 15.5426 1.89154 13.9826 0 14.0541C0.0767474 16.1639 1.30314 17.5808 2.85949 17.3913Z" fill="#FEC972"/>
  <path fill-rule="evenodd" clip-rule="evenodd" d="M5.28674 6.64062C3.25999 7.50103 3.32316 9.89325 4.16529 10.9228C5.89759 9.53875 6.3445 7.83204 5.28674 6.64062Z" fill="#FEC972"/>
  <path fill-rule="evenodd" clip-rule="evenodd" d="M4.64809 20.4497C6.32504 20.6189 7.56501 19.0077 7.43031 16.793C5.68548 17.2096 4.42724 18.8824 4.64809 20.4497Z" fill="#FEC972"/>
  <path fill-rule="evenodd" clip-rule="evenodd" d="M5.60665 23.7992C7.5128 23.5559 8.6849 21.9714 8.13305 20.4307C6.3689 20.7324 5.35082 22.0742 5.60665 23.7992Z" fill="#FEC972"/>
  <path fill-rule="evenodd" clip-rule="evenodd" d="M7.21036 13.8358C5.49842 13.7585 4.09452 15.3138 4.24801 17.1589C5.53653 17.245 7.08766 15.483 7.21036 13.8358Z" fill="#FEC972"/>
  <path fill-rule="evenodd" clip-rule="evenodd" d="M3.27278 20.9121C3.25242 19.3693 1.66578 18.1283 0.0258965 18.3726C0.0091896 20.0945 1.49349 21.2551 3.27278 20.9121Z" fill="#FEC972"/>
  <path fill-rule="evenodd" clip-rule="evenodd" d="M1.05768 22.1534C1.4268 23.7364 3.13769 24.744 4.43926 24.1827C4.12601 22.6917 2.71688 21.8339 1.05768 22.1534Z" fill="#FEC972"/>
  <path fill-rule="evenodd" clip-rule="evenodd" d="M4.61413 13.4261C6.23418 13.2397 7.27836 12.0869 7.26478 10.458C5.51891 10.7546 4.27059 12.1699 4.61413 13.4261Z" fill="#FEC972"/>
  <path fill-rule="evenodd" clip-rule="evenodd" d="M18.4415 0C13.8131 0 9.64527 1.96567 6.72365 5.10709C6.82128 5.34882 6.91526 5.59943 7.00558 5.85786C9.80556 2.70234 13.8909 0.713176 18.4415 0.713176C26.8842 0.713176 33.7283 7.55727 33.7283 16C33.7283 24.4427 26.8842 31.2868 18.4415 31.2868C13.6095 31.2868 9.30226 29.0444 6.50072 25.5443C6.49498 25.5569 6.48923 25.5689 6.48349 25.5814C6.18224 25.2133 5.88152 24.8333 5.68104 24.4584C5.32758 23.798 5.01589 23.1093 4.75224 22.4081C4.48858 21.7075 4.26774 20.9849 4.10015 20.255C3.93255 19.5246 3.8177 18.7775 3.74565 18.0315C3.6736 17.2849 3.64332 16.5289 3.6689 15.7792C3.69448 15.0294 3.78376 14.2787 3.89757 13.5368C4.0093 12.81 4.18681 12.0937 4.33561 11.3727C4.26356 11.3555 4.19203 11.3388 4.11999 11.3215C3.67725 12.2201 3.57127 13.2251 3.45745 14.203C2.85235 19.3915 3.65428 24.3858 7.70153 27.8577C10.5407 30.4311 14.3075 32 18.4415 32C27.2784 32 34.442 24.8364 34.442 15.9995C34.442 7.16257 27.2779 0 18.4415 0Z" fill="#FEC972"/>
  <path d="M27.0874 17.666C27.1892 17.6441 26.983 17.3883 26.9715 17.3935C25.5958 14.6697 18.4123 15.2983 16.9677 16.3603C16.6664 16.0903 16.254 16.1081 16.0478 15.9786C15.8102 15.8298 15.6719 15.7244 15.5184 15.8189C15.1921 16.0199 15.497 17.2917 15.4829 17.275V17.2739C15.4792 17.2703 15.4688 17.2572 15.4557 17.24C14.6767 17.761 14.7274 18.919 13.6425 19.0934C13.4932 19.1174 13.4107 19.2861 13.431 19.4359L13.6461 20.903C13.6644 21.0283 13.7579 21.129 13.8816 21.1588C14.2606 21.2491 14.7034 21.2836 15.1618 21.3431C15.8682 21.4345 16.397 21.9597 17.2 22.1372C17.2538 22.1487 17.2997 22.1863 17.3185 22.238C17.5931 22.9971 17.6683 23.7797 17.5697 24.5816H18.736C18.8091 23.7739 19.0571 23.2623 19.2524 22.6697C19.292 22.5491 19.4126 22.4724 19.5379 22.4912C21.1637 22.7386 22.7796 22.5731 24.3866 22.0234C24.4774 21.9921 24.5761 22.0343 24.6179 22.121C25.0679 23.065 25.5785 22.8217 25.2266 24.5816H26.5434C26.4019 21.7921 28.0553 20.1757 27.0869 17.666H27.0874Z" fill="#3AADA8"/>
  <path fill-rule="evenodd" clip-rule="evenodd" d="M19.7729 17.1617C19.8763 17.1617 19.9708 17.2265 20.0157 17.3283C20.046 17.3157 20.0783 17.3095 20.1107 17.3095C20.26 17.3095 20.3811 17.4416 20.3811 17.6045C20.3811 17.7172 20.3211 17.8122 20.2355 17.8618C20.3858 17.9824 20.5017 18.1636 20.6119 18.3286C20.7617 18.5526 20.8406 18.8225 20.9549 19.07C21.0693 19.3169 21.1293 19.6041 21.2984 19.8113C21.4347 19.9784 21.6159 20.1173 21.8132 20.182C21.9777 20.2358 22.1578 20.205 22.3285 20.182C22.5624 20.1507 22.7812 20.028 23.0151 19.9972C23.1853 19.9742 23.3712 20.0682 23.5299 19.9972C23.7544 19.897 23.8483 19.5941 24.0452 19.4412C24.253 19.2798 24.7317 19.0705 24.7317 19.0705V19.4412L25.2465 19.0705V19.8119L25.0747 20.1825V20.7386L24.7317 21.1093L24.5594 21.8506C24.5594 21.8506 24.1726 22.1832 24.0446 22.4061C23.9496 22.5722 23.9684 22.7961 23.8729 22.9622C23.7027 23.2592 23.4615 23.5197 23.1863 23.7035C23.1534 23.7254 23.1169 23.7442 23.083 23.7651L23.3805 24.6485L23.4061 24.6266C23.4307 24.6041 23.462 24.5921 23.4938 24.5926C23.5685 24.5932 23.6285 24.66 23.628 24.7414C23.628 24.7863 23.6087 24.8286 23.5758 24.8563L23.4928 24.9289L23.3764 25.0317L23.3153 25.5653C23.3069 25.6462 23.2396 25.7042 23.1654 25.6948C23.0913 25.6854 23.0381 25.6123 23.0464 25.5314C23.0464 25.5303 23.0464 25.5293 23.0464 25.5282L23.0746 25.2839L22.7368 25.581C22.6789 25.6326 22.5938 25.6233 22.5468 25.5601C22.4993 25.4969 22.5081 25.404 22.5656 25.3523C22.5661 25.3523 22.5666 25.3512 22.5671 25.3507L22.848 25.1038H22.7076C22.6329 25.1048 22.5718 25.0396 22.5708 24.9581C22.5697 24.8767 22.6293 24.8098 22.7039 24.8083C22.705 24.8083 22.7065 24.8083 22.7076 24.8083H23.1467L22.8397 23.8957C22.6548 23.9834 22.4611 24.0439 22.2643 24.0612L22.1244 24.9555H22.2346C22.3092 24.9545 22.3703 25.0197 22.3713 25.1012C22.3724 25.1826 22.3129 25.2494 22.2382 25.251C22.2372 25.251 22.2356 25.251 22.2346 25.251H22.0137L21.5788 25.6577C21.5229 25.7115 21.4373 25.7057 21.3882 25.6447C21.3386 25.5836 21.3444 25.4901 21.4003 25.4363C21.4013 25.4353 21.4023 25.4343 21.4034 25.4332L21.5987 25.2505H21.1538C21.0792 25.2515 21.0181 25.1863 21.017 25.1048C21.016 25.0234 21.0755 24.9565 21.1502 24.955C21.1512 24.955 21.1528 24.955 21.1538 24.955H21.6133L21.4076 24.7754C21.3486 24.7253 21.3381 24.6328 21.3841 24.5681C21.4102 24.5316 21.4509 24.5102 21.4932 24.5112C21.5235 24.5117 21.5532 24.5237 21.5767 24.5446L21.8743 24.8046L21.9928 24.0455C21.8707 24.0116 21.7532 23.9494 21.642 23.8863C21.3888 23.7427 21.1925 23.503 20.9554 23.3307C20.6787 23.1297 20.3451 23.0159 20.0971 22.7747C19.8846 22.568 19.7055 22.3121 19.5823 22.0334C19.481 21.8036 19.4252 21.5462 19.4106 21.292C19.3829 20.795 19.5536 20.3068 19.5823 19.8098C19.5964 19.5633 19.6189 19.3122 19.5823 19.0684C19.5536 18.8757 19.5573 18.6272 19.4106 18.5129C19.3641 18.4769 19.2962 18.5129 19.2388 18.5129H18.8953C18.8953 18.5129 19.0843 18.1041 19.2388 17.9569C19.2712 17.9261 19.3103 17.9031 19.3479 17.8791C19.2419 17.8389 19.1647 17.7324 19.1647 17.6029C19.1647 17.44 19.2858 17.3079 19.4351 17.3079C19.4675 17.3079 19.4998 17.3142 19.5301 17.3267C19.575 17.2249 19.6695 17.1602 19.7729 17.1602V17.1617Z" fill="#FEC972"/>
</svg>